<svg id="Capa_1" data-name="Capa 1" xmlns="http://www.w3.org/2000/svg" viewBox="0 0 312 320"><defs><style>.cls-1{fill:#00299b;}</style></defs><title>Logo-Integradora</title><polygon class="cls-1" points="113 171 0 171 0 183 137 183 137 129 103 129 152 25 141 0 69 146 112 146 113 171"/><polygon class="cls-1" points="113 119 136 119 173 49 211 127 178 127 178 183 312 183 312 171 202 171 202 149 246 149 173 0 113 119"/><polygon class="cls-1" points="161 89 173 66 199 119 177 119 161 89"/><rect class="cls-1" y="309" width="312" height="11"/><path class="cls-1" d="M542.93,404.68a31,31,0,0,1-3.75.85,22.73,22.73,0,0,1-3.42.28q-6.39,0-10.28-3.55a12.94,12.94,0,0,1-.05-18.45,13.85,13.85,0,0,1,9.87-3.6,20.05,20.05,0,0,1,2.61.19,23.68,23.68,0,0,1,2.86.57l.47,4.92a16.93,16.93,0,0,0-3.11-1.33,9.66,9.66,0,0,0-2.76-.43,5.85,5.85,0,0,0-4.78,2.12,9,9,0,0,0-1.74,5.88c0,3.1.7,5.5,2.12,7.2a7.31,7.31,0,0,0,6,2.56,13,13,0,0,0,3.58-.53,22.64,22.64,0,0,0,4-1.63Z" transform="translate(-501.5 -170.5)"/><path class="cls-1" d="M543.79,405.23a13.84,13.84,0,0,0,1.35-1.85,9.42,9.42,0,0,0,.85-1.79l5.73-16.38c0-.11.09-.25.16-.44a4.91,4.91,0,0,0,.38-1.6,2.33,2.33,0,0,0-.25-1.06,7.28,7.28,0,0,0-.94-1.3h8.63l6.92,20a12.82,12.82,0,0,0,1.15,2.45,10.6,10.6,0,0,0,1.54,2H558.73a7.5,7.5,0,0,0,1.06-1.43,2.52,2.52,0,0,0,.24-1.09,4.68,4.68,0,0,0,0-.66,3.19,3.19,0,0,0-.13-.55L558.63,398h-7.35l-1.14,3.35a8.35,8.35,0,0,0-.28,1,2.77,2.77,0,0,0-.06.53,2.84,2.84,0,0,0,.29,1.23,4.31,4.31,0,0,0,.87,1.18Zm8.68-10.65h5L555,387.05Z" transform="translate(-501.5 -170.5)"/><path class="cls-1" d="M577.77,403.54q0,4.17-2.1,6.24c-1.4,1.38-3.83,2.4-7.29,3a18.14,18.14,0,0,0,2-4,14,14,0,0,0,.63-4.38V385.1a8.08,8.08,0,0,0-.33-2.73,4.17,4.17,0,0,0-1.12-1.56h9.69a4.17,4.17,0,0,0-1.12,1.56,8.41,8.41,0,0,0-.32,2.73Z" transform="translate(-501.5 -170.5)"/><path class="cls-1" d="M578.86,405.23a13.84,13.84,0,0,0,1.35-1.85,10.07,10.07,0,0,0,.85-1.79l5.73-16.38c0-.11.08-.25.15-.44a4.72,4.72,0,0,0,.39-1.6,2.33,2.33,0,0,0-.25-1.06,7.28,7.28,0,0,0-.94-1.3h8.63l6.92,20a12.82,12.82,0,0,0,1.15,2.45,10.6,10.6,0,0,0,1.54,2H593.8a6.94,6.94,0,0,0,1.05-1.43,2.39,2.39,0,0,0,.25-1.09,4.68,4.68,0,0,0,0-.66,2.44,2.44,0,0,0-.14-.55L593.69,398h-7.34l-1.15,3.35c-.14.44-.23.75-.27,1a2.77,2.77,0,0,0-.06.53,2.84,2.84,0,0,0,.29,1.23,4.31,4.31,0,0,0,.87,1.18Zm8.68-10.65h5l-2.49-7.53Z" transform="translate(-501.5 -170.5)"/><path class="cls-1" d="M613.94,405.23a5.58,5.58,0,0,0,1.19-1.73,11.22,11.22,0,0,0,.66-3l1.79-14.19c.07-.56.12-1,.14-1.32s0-.56,0-.73a5.76,5.76,0,0,0-.28-1.8,6.53,6.53,0,0,0-.9-1.67h7.7l5.47,14.91,4.58-14.91h7.84a5.27,5.27,0,0,0-1.06,1.5,4.26,4.26,0,0,0-.31,1.65c0,.19,0,.53.07,1v.1l1.71,15a3.23,3.23,0,0,0,0,.35,8.76,8.76,0,0,0,1.66,4.73h-9a5.7,5.7,0,0,0,.73-1.54,6.11,6.11,0,0,0,.24-1.77c0-.24,0-.43,0-.55s0-.24,0-.34L635,389.81l-4.82,15.82a7.82,7.82,0,0,1-3.23-1.86,10.26,10.26,0,0,1-2.13-3.62l-4-10.51-1.09,9.75c-.07.6-.12,1.13-.15,1.6s-.06.88-.06,1.22a3.81,3.81,0,0,0,.3,1.54,5.53,5.53,0,0,0,1,1.48Z" transform="translate(-501.5 -170.5)"/><path class="cls-1" d="M646.46,405.23a4.1,4.1,0,0,0,1.09-1.57,8.66,8.66,0,0,0,.32-2.76V385.1a8.51,8.51,0,0,0-.32-2.78,4.08,4.08,0,0,0-1.09-1.51h14.29v5.08a5.49,5.49,0,0,0-1.58-1.09,4.93,4.93,0,0,0-1.9-.31h-2.49v6.08h4.67v4.69a2.69,2.69,0,0,0-1.09-.91,3.51,3.51,0,0,0-1.53-.32h-2.05v7.35c.57.12,1.07.2,1.5.25s.83.07,1.2.07a12.27,12.27,0,0,0,3.44-.43,8,8,0,0,0,2.68-1.37l-1.3,5.33Z" transform="translate(-501.5 -170.5)"/><path class="cls-1" d="M662.71,405.23l8.59-12.75-4.6-8.17a18.76,18.76,0,0,0-1.23-1.92,15,15,0,0,0-1.39-1.58h8.42l4.16,7.86,2.27-3.39a6,6,0,0,0,.68-1.22,2.82,2.82,0,0,0,.23-1.05,2.11,2.11,0,0,0-.3-1,6.25,6.25,0,0,0-.93-1.18h7.86l-7.61,11.32,5.62,9.67c.3.5.66,1,1.09,1.62s.94,1.18,1.5,1.81h-8.42l-5.12-9.41-3.13,4.63a5.83,5.83,0,0,0-.65,1.22,3.51,3.51,0,0,0-.21,1.19,2.73,2.73,0,0,0,.25,1.08,6.05,6.05,0,0,0,.83,1.29Z" transform="translate(-501.5 -170.5)"/><path class="cls-1" d="M695.1,400.9a8.32,8.32,0,0,0,.33,2.76,4.19,4.19,0,0,0,1.08,1.57h-9.65a4.22,4.22,0,0,0,1.09-1.57,8.73,8.73,0,0,0,.31-2.76V385.1a8.58,8.58,0,0,0-.31-2.78,4.19,4.19,0,0,0-1.09-1.51h9.65a4.07,4.07,0,0,0-1.09,1.56,8.41,8.41,0,0,0-.32,2.73Z" transform="translate(-501.5 -170.5)"/><path class="cls-1" d="M720.63,404.68a31.92,31.92,0,0,1-3.75.85,22.86,22.86,0,0,1-3.43.28q-6.37,0-10.27-3.55a12.94,12.94,0,0,1,0-18.45,13.85,13.85,0,0,1,9.87-3.6,20.05,20.05,0,0,1,2.61.19,23.54,23.54,0,0,1,2.85.57l.48,4.92a17.22,17.22,0,0,0-3.11-1.33,9.66,9.66,0,0,0-2.76-.43,5.85,5.85,0,0,0-4.78,2.12,9,9,0,0,0-1.75,5.88q0,4.65,2.12,7.2a7.34,7.34,0,0,0,6,2.56,13,13,0,0,0,3.58-.53,22.64,22.64,0,0,0,4-1.63Z" transform="translate(-501.5 -170.5)"/><path class="cls-1" d="M721.49,405.23a13.84,13.84,0,0,0,1.35-1.85,9.37,9.37,0,0,0,.84-1.79l5.73-16.38.16-.44a4.72,4.72,0,0,0,.39-1.6,2.34,2.34,0,0,0-.26-1.06,6.8,6.8,0,0,0-.94-1.3h8.63l6.93,20a12.82,12.82,0,0,0,1.15,2.45,10.2,10.2,0,0,0,1.54,2H736.43a6.94,6.94,0,0,0,1.05-1.43,2.39,2.39,0,0,0,.25-1.09,4.65,4.65,0,0,0-.05-.66,2,2,0,0,0-.13-.55L736.32,398H729l-1.14,3.35c-.14.44-.23.75-.27,1a2.77,2.77,0,0,0-.06.53,2.71,2.71,0,0,0,.29,1.23,4.31,4.31,0,0,0,.87,1.18Zm8.68-10.65h5l-2.5-7.53Z" transform="translate(-501.5 -170.5)"/><path class="cls-1" d="M747,405.23a5.89,5.89,0,0,0,1.31-2.15,14.4,14.4,0,0,0,.38-4V386a6.42,6.42,0,0,0-1.94-5.19h7.53l11.07,14.94v-9.63a9.11,9.11,0,0,0-.4-2.94,8.57,8.57,0,0,0-1.32-2.37h7a9.92,9.92,0,0,0-1.1,2.45,11,11,0,0,0-.34,3v19.61c-3.41-.39-6.44-2.32-9.07-5.76l-.22-.28-7.38-9.62v10.37a8.32,8.32,0,0,0,.37,2.84,5.19,5.19,0,0,0,1.25,1.84Z" transform="translate(-501.5 -170.5)"/><path class="cls-1" d="M770.86,405.23a14,14,0,0,0,1.36-1.85,9.37,9.37,0,0,0,.84-1.79l5.73-16.38.16-.44a4.72,4.72,0,0,0,.39-1.6,2.34,2.34,0,0,0-.26-1.06,6.8,6.8,0,0,0-.94-1.3h8.63l6.93,20a12.24,12.24,0,0,0,1.15,2.45,9.82,9.82,0,0,0,1.54,2H785.8a7.08,7.08,0,0,0,1.06-1.43,2.53,2.53,0,0,0,.25-1.09,4.65,4.65,0,0,0-.05-.66,2.47,2.47,0,0,0-.13-.55L785.7,398h-7.35l-1.14,3.35c-.14.44-.23.75-.27,1a2.77,2.77,0,0,0-.06.53,2.71,2.71,0,0,0,.29,1.23,4.31,4.31,0,0,0,.87,1.18Zm8.69-10.65h5l-2.5-7.53Z" transform="translate(-501.5 -170.5)"/><path class="cls-1" d="M519.43,444.1a8.38,8.38,0,0,0,.32,2.76,4.43,4.43,0,0,0,1.08,1.57h-9.65a4.19,4.19,0,0,0,1.08-1.57,8.32,8.32,0,0,0,.33-2.76V428.27c-.15,0-.32,0-.49-.06h-.78a9,9,0,0,0-2.39.32,14,14,0,0,0-2.53,1l1.44-5.52h17.88l-1.25,5.52a3.56,3.56,0,0,0-1.45-1,6,6,0,0,0-2.12-.32l-.88,0-.59,0Z" transform="translate(-501.5 -170.5)"/><path class="cls-1" d="M536,440a6,6,0,0,0,.93,3.62,3.19,3.19,0,0,0,2.71,1.24,3.38,3.38,0,0,0,2.85-1.23,5.78,5.78,0,0,0,1-3.63V428.3a8.84,8.84,0,0,0-.29-2.53A3.88,3.88,0,0,0,542,424h9.69a4.16,4.16,0,0,0-1.08,1.51,8.18,8.18,0,0,0-.33,2.78v15.8a8.32,8.32,0,0,0,.33,2.76,4.19,4.19,0,0,0,1.08,1.57h-8.11v-2.59a9.5,9.5,0,0,1-3.18,2.46,9.16,9.16,0,0,1-3.87.78,8.28,8.28,0,0,1-3.26-.6,6.86,6.86,0,0,1-2.47-1.77,6.37,6.37,0,0,1-1.27-2.45,16.22,16.22,0,0,1-.38-4V428.3a8.58,8.58,0,0,0-.31-2.78,4.32,4.32,0,0,0-1.09-1.51h9.65a4.07,4.07,0,0,0-1.09,1.56,8.45,8.45,0,0,0-.32,2.73Zm.18-18.61,5.15-5.33a7.31,7.31,0,0,1,1.43-1.24,2.26,2.26,0,0,1,1.11-.3,1.68,1.68,0,0,1,1.74,1.72,1.47,1.47,0,0,1-.35,1,4.64,4.64,0,0,1-1.31,1l-6.12,3.2Z" transform="translate(-501.5 -170.5)"/><path class="cls-1" d="M586.49,447.88a31.47,31.47,0,0,1-3.75.85,21.52,21.52,0,0,1-3.43.28q-6.37,0-10.27-3.55A12.94,12.94,0,0,1,569,427a13.85,13.85,0,0,1,9.87-3.59,20,20,0,0,1,2.61.18,23.16,23.16,0,0,1,2.85.57l.48,4.92a16.93,16.93,0,0,0-3.11-1.33,9.66,9.66,0,0,0-2.76-.43,5.85,5.85,0,0,0-4.78,2.12,9,9,0,0,0-1.74,5.88q0,4.65,2.11,7.2a7.34,7.34,0,0,0,6,2.56,13,13,0,0,0,3.58-.53,21.89,21.89,0,0,0,4-1.63Z" transform="translate(-501.5 -170.5)"/><path class="cls-1" d="M603.59,449a14,14,0,0,1-9.91-3.6,12.06,12.06,0,0,1-3.87-9.22,11.83,11.83,0,0,1,1.13-5,13.25,13.25,0,0,1,7.54-6.85,14.76,14.76,0,0,1,5.11-.89,14.08,14.08,0,0,1,10,3.57,12.46,12.46,0,0,1,2.71,14.25,13.36,13.36,0,0,1-7.5,6.85A15,15,0,0,1,603.59,449Zm-6.52-13.61a12.87,12.87,0,0,0,1.85,7.29,5.67,5.67,0,0,0,4.88,2.75,5.6,5.6,0,0,0,4.64-2.15,9.34,9.34,0,0,0,1.71-6,12.62,12.62,0,0,0-1.87-7.27,5.69,5.69,0,0,0-4.9-2.74,5.59,5.59,0,0,0-4.61,2.17A9.32,9.32,0,0,0,597.07,435.4Z" transform="translate(-501.5 -170.5)"/><path class="cls-1" d="M633.51,449a14,14,0,0,1-9.92-3.6,12.08,12.08,0,0,1-3.86-9.22,11.68,11.68,0,0,1,1.13-5,13.28,13.28,0,0,1,7.53-6.85,14.86,14.86,0,0,1,5.12-.89,14.11,14.11,0,0,1,10,3.57,12,12,0,0,1,3.85,9.21,11.8,11.8,0,0,1-1.15,5,13,13,0,0,1-3.19,4.28,13.2,13.2,0,0,1-4.3,2.57A15,15,0,0,1,633.51,449ZM627,435.4a12.79,12.79,0,0,0,1.85,7.29,5.88,5.88,0,0,0,9.52.6,9.34,9.34,0,0,0,1.7-6,12.7,12.7,0,0,0-1.86-7.27,5.7,5.7,0,0,0-4.9-2.74,5.57,5.57,0,0,0-4.61,2.17A9.32,9.32,0,0,0,627,435.4Z" transform="translate(-501.5 -170.5)"/><path class="cls-1" d="M660.88,424a8.6,8.6,0,0,1,5.73,1.78,5.94,5.94,0,0,1,2.11,4.78,6.64,6.64,0,0,1-2.25,5.31,9.16,9.16,0,0,1-6.17,1.93c-.3,0-.77,0-1.43-.07h-.08a6.34,6.34,0,0,0,2.52-2.29,6.63,6.63,0,0,0,.82-3.4,4.64,4.64,0,0,0-1-3.16,3.52,3.52,0,0,0-2.76-1.19v16.4a8.38,8.38,0,0,0,.32,2.76,4.43,4.43,0,0,0,1.08,1.57H650.1a4.1,4.1,0,0,0,1.09-1.57,8.66,8.66,0,0,0,.32-2.76V428.3a8.45,8.45,0,0,0-.32-2.73A4.07,4.07,0,0,0,650.1,424Z" transform="translate(-501.5 -170.5)"/><path class="cls-1" d="M671.44,448.43a4.1,4.1,0,0,0,1.09-1.57,8.66,8.66,0,0,0,.32-2.76V428.3a8.51,8.51,0,0,0-.32-2.78,4.08,4.08,0,0,0-1.09-1.51h14.29v5.08a5.62,5.62,0,0,0-1.58-1.09,5,5,0,0,0-1.9-.31h-2.49v6.08h4.67v4.69a2.69,2.69,0,0,0-1.09-.91,3.51,3.51,0,0,0-1.53-.32h-2v7.35c.57.12,1.07.2,1.5.25s.83.07,1.2.07a12.27,12.27,0,0,0,3.44-.43,8,8,0,0,0,2.68-1.37l-1.3,5.33Z" transform="translate(-501.5 -170.5)"/><path class="cls-1" d="M700.57,448.43h-9.65a4.22,4.22,0,0,0,1.09-1.57,8.73,8.73,0,0,0,.31-2.76V428.3a8.58,8.58,0,0,0-.31-2.78,4.19,4.19,0,0,0-1.09-1.51h9.51q4.76,0,7.11,1.63a6.14,6.14,0,0,1,1.26,8.3,8.94,8.94,0,0,1-3.36,2.54l4.41,7.55a15.55,15.55,0,0,0,1.38,2,24.81,24.81,0,0,0,1.87,2.1l-4.06.39-.38,0h-.6a5.14,5.14,0,0,1-3.18-1,10.22,10.22,0,0,1-2.55-3.43L699.16,438v6.15a8.32,8.32,0,0,0,.33,2.76A4.19,4.19,0,0,0,700.57,448.43ZM699.16,436a5.51,5.51,0,0,0,3-1.71,4.51,4.51,0,0,0,1-3,3.75,3.75,0,0,0-.92-2.67,3.31,3.31,0,0,0-2.52-1h-.34a.78.78,0,0,0-.21,0Z" transform="translate(-501.5 -170.5)"/><path class="cls-1" d="M710.94,448.43a13.84,13.84,0,0,0,1.35-1.85,9.42,9.42,0,0,0,.85-1.79l5.73-16.38c0-.11.09-.25.16-.44a4.91,4.91,0,0,0,.38-1.6,2.33,2.33,0,0,0-.25-1.06,7.28,7.28,0,0,0-.94-1.3h8.63l6.92,20a12.82,12.82,0,0,0,1.15,2.45,10.6,10.6,0,0,0,1.54,1.95H725.88a7.5,7.5,0,0,0,1.06-1.43,2.47,2.47,0,0,0,.24-1.08,4.73,4.73,0,0,0,0-.67,3.19,3.19,0,0,0-.13-.55l-1.23-3.51h-7.35l-1.14,3.35a8.35,8.35,0,0,0-.28.95,2.77,2.77,0,0,0-.06.53,2.84,2.84,0,0,0,.29,1.23,4.31,4.31,0,0,0,.87,1.18Zm8.68-10.65h5l-2.49-7.53Z" transform="translate(-501.5 -170.5)"/><path class="cls-1" d="M747.27,444.1a8.32,8.32,0,0,0,.33,2.76,4.43,4.43,0,0,0,1.08,1.57H739a4.43,4.43,0,0,0,1.08-1.57,8.32,8.32,0,0,0,.33-2.76V428.27c-.16,0-.32,0-.49-.06h-.78a8.93,8.93,0,0,0-2.39.32,13.73,13.73,0,0,0-2.53,1l1.44-5.52h17.88l-1.25,5.52a3.56,3.56,0,0,0-1.45-1,6,6,0,0,0-2.12-.32l-.88,0-.6,0Z" transform="translate(-501.5 -170.5)"/><path class="cls-1" d="M763.8,444.1a8.66,8.66,0,0,0,.32,2.76,4.43,4.43,0,0,0,1.08,1.57h-9.65a4.1,4.1,0,0,0,1.09-1.57,8.66,8.66,0,0,0,.32-2.76V428.3a8.51,8.51,0,0,0-.32-2.78,4.08,4.08,0,0,0-1.09-1.51h9.65a4.19,4.19,0,0,0-1.09,1.56,8.51,8.51,0,0,0-.31,2.73Z" transform="translate(-501.5 -170.5)"/><path class="cls-1" d="M780.67,449a14.18,14.18,0,0,1-5.18-2.37,11.52,11.52,0,0,1-3-5.15l-4.66-13.43c-.26-.75-.54-1.46-.84-2.11s-.63-1.3-1-1.94h8a16.52,16.52,0,0,0,.79,3.24c.07.2.12.33.14.4l4.68,14,4.11-12.47a13.4,13.4,0,0,0,.39-1.38,4.5,4.5,0,0,0,.11-.92,3.09,3.09,0,0,0-.3-1.31,7.09,7.09,0,0,0-1.08-1.54h6.31Z" transform="translate(-501.5 -170.5)"/><path class="cls-1" d="M785.37,448.43a13.84,13.84,0,0,0,1.35-1.85,9.37,9.37,0,0,0,.84-1.79l5.73-16.38.16-.44a4.72,4.72,0,0,0,.39-1.6,2.34,2.34,0,0,0-.26-1.06,6.8,6.8,0,0,0-.94-1.3h8.63l6.93,20a12.24,12.24,0,0,0,1.15,2.45,10.2,10.2,0,0,0,1.54,1.95H800.31a6.94,6.94,0,0,0,1.05-1.43,2.35,2.35,0,0,0,.25-1.08,4.68,4.68,0,0,0-.05-.67,2.47,2.47,0,0,0-.13-.55l-1.23-3.51h-7.35l-1.14,3.35c-.14.44-.23.75-.27.95a2.77,2.77,0,0,0-.06.53,2.71,2.71,0,0,0,.29,1.23,4.31,4.31,0,0,0,.87,1.18Zm8.68-10.65h5l-2.5-7.53Z" transform="translate(-501.5 -170.5)"/></svg>